<?xml version="1.0" encoding="UTF-8"?>
<svg width="231px" height="258px" viewBox="0 0 231 258" version="1.1" xmlns="http://www.w3.org/2000/svg" xmlns:xlink="http://www.w3.org/1999/xlink">
    <!-- Generator: Sketch 52.4 (67378) - http://www.bohemiancoding.com/sketch -->
    <title>Blockchain</title>
    <desc>Created with Sketch.</desc>
    <g id="Page-1" stroke="none" stroke-width="1" fill="none" fill-rule="evenodd">
        <g id="Artboard" transform="translate(-572.000000, -345.000000)">
            <g id="Blockchain" transform="translate(572.000000, 345.000000)">
                <path d="M112.746025,0.693662444 C114.488106,-0.0400438044 116.417455,-0.196465042 118.253975,0.24710746 L224.859476,35.1677072 C228.67363,36.4126552 231.185286,40.0721219 230.989292,44.0988069 L230.989292,94.3808981 C231.380174,144.947418 208.691403,192.903518 169.424616,224.50702 L125.005657,256.301735 C123.415876,257.414221 121.523523,258.006781 119.586544,257.998644 C117.714544,258.031432 115.880096,257.468789 114.345107,256.391046 L66.4614698,225.042886 C25.8054623,193.824786 1.37812609,145.793368 0.0107079223,94.3808981 L0.0107079223,44.5453619 C-0.185286478,40.5186768 2.32637045,36.8592102 6.14052419,35.6142622 L112.746025,0.693662444 Z" id="Shape" fill="#523765" fill-rule="nonzero"></path>
                <g id="Group-2" transform="translate(69.000000, 53.000000)">
                    <circle id="Oval" fill="#FFFFFF" cx="48.5" cy="26.5" r="26.5"></circle>
                    <path d="M66.7276074,60 L28.6960039,60 C12.6976545,60.8963042 0.140373082,74.1292334 0,90.24 L0,123 L93.9825456,123 L93.9825456,90.24 C94.5229682,74.4084418 82.4495241,61.0126694 66.7276074,60 Z" id="Path" fill="#FFFFFF"></path>
                    <polygon id="Path" fill="#523765" points="31.1904369 82.356044 24 89.8307692 43.5111294 110 50.7015664 102.525275 73 79.4747253 65.7691674 72 43.5111294 95.0505495"></polygon>
                </g>
            </g>
        </g>
    </g>
</svg>