<?xml version="1.0" encoding="UTF-8"?>
<svg width="265px" height="173px" viewBox="0 0 265 173" version="1.1" xmlns="http://www.w3.org/2000/svg" xmlns:xlink="http://www.w3.org/1999/xlink">
    <!-- Generator: Sketch 52.4 (67378) - http://www.bohemiancoding.com/sketch -->
    <title>Guides</title>
    <desc>Created with Sketch.</desc>
    <g id="Page-1" stroke="none" stroke-width="1" fill="none" fill-rule="evenodd">
        <g id="Artboard" transform="translate(-195.000000, -84.000000)" fill="#523765" fill-rule="nonzero">
            <g id="Guides" transform="translate(195.000000, 84.000000)">
                <path d="M53.6446979,1.3117944 C88.0806911,-1.69388889 113.28058,3.54874414 129.244365,17.0396935 L129.244365,155.3937 C98.1906074,135.116639 63.6012041,126.658887 25.4761554,130.020443 L53.6446979,1.3117944 Z" id="Path-5"></path>
                <path d="M163.644698,1.3117944 C198.080691,-1.69388889 223.28058,3.54874414 239.244365,17.0396935 L239.244365,155.3937 C208.190607,135.116639 173.601204,126.658887 135.476155,130.020443 L163.644698,1.3117944 Z" id="Path-5" transform="translate(187.360260, 77.942021) scale(-1, 1) translate(-187.360260, -77.942021) "></path>
                <path d="M25.0417033,22.6074736 L41.5186396,24.9624558 L15.0763907,138.401634 C42.9391811,132.082326 82.1019579,140.24598 132.564721,162.892594 C176.646332,140.69987 215.632505,132.536217 249.52324,138.401634 L223.463249,24.9624558 L239.924262,22.6074736 L264.241136,149.132887 L132.564721,172.703841 L0.873545832,149.132887 L25.0417033,22.6074736 Z" id="Path-6"></path>
            </g>
        </g>
    </g>
</svg>